<mxfile host="app.diagrams.net" agent="Mozilla/5.0 (Windows NT 10.0; Win64; x64) AppleWebKit/537.36 (KHTML, like Gecko) Chrome/131.0.0.0 Safari/537.36" version="26.0.7">
  <diagram name="Page-1" id="KvCx9ytCA7TaIDZjrWF6">
    <mxGraphModel dx="2109" dy="655" grid="1" gridSize="10" guides="1" tooltips="1" connect="1" arrows="1" fold="1" page="1" pageScale="1" pageWidth="850" pageHeight="1100" math="0" shadow="0">
      <root>
        <mxCell id="0" />
        <mxCell id="1" parent="0" />
        <mxCell id="zyvf-ZS0OscmSLXaZsEM-1" value="" style="sketch=0;aspect=fixed;pointerEvents=1;shadow=0;dashed=0;html=1;strokeColor=none;labelPosition=center;verticalLabelPosition=bottom;verticalAlign=top;align=center;fillColor=#00188D;shape=mxgraph.azure.laptop" vertex="1" parent="1">
          <mxGeometry x="-70" y="220" width="450" height="270" as="geometry" />
        </mxCell>
        <mxCell id="zyvf-ZS0OscmSLXaZsEM-6" style="edgeStyle=orthogonalEdgeStyle;rounded=0;orthogonalLoop=1;jettySize=auto;html=1;entryX=0;entryY=0.25;entryDx=0;entryDy=0;flowAnimation=1;" edge="1" parent="1" source="zyvf-ZS0OscmSLXaZsEM-2" target="zyvf-ZS0OscmSLXaZsEM-3">
          <mxGeometry relative="1" as="geometry" />
        </mxCell>
        <mxCell id="zyvf-ZS0OscmSLXaZsEM-8" style="edgeStyle=orthogonalEdgeStyle;rounded=0;orthogonalLoop=1;jettySize=auto;html=1;" edge="1" parent="1" source="zyvf-ZS0OscmSLXaZsEM-2" target="zyvf-ZS0OscmSLXaZsEM-7">
          <mxGeometry relative="1" as="geometry">
            <Array as="points">
              <mxPoint x="35" y="362" />
            </Array>
          </mxGeometry>
        </mxCell>
        <mxCell id="zyvf-ZS0OscmSLXaZsEM-2" value="" style="shape=image;verticalLabelPosition=bottom;labelBackgroundColor=default;verticalAlign=top;aspect=fixed;imageAspect=0;image=data:image/png,iVBORw0KGgoAAAANSUhEUgAAAFEAAABRCAYAAACqj0o2AAAAAXNSR0IArs4c6QAAAARnQU1BAACxjwv8YQUAAAAJcEhZcwAADsMAAA7DAcdvqGQAACPoSURBVHhe7ZxpsGVXdd9/a+99hju8+fXruTULCbVkzQgREMIDBgM2GOHguDCpSlIuJ5UqO6nkQyoei4rjUPkQA0k8VHlAYCyJwQaDCSAxCBCap26NrW61enrv9RvvdM7ZQz7sc1+/fq+7EYWw+aB/1X733X3vPXef/1577bXWXuvK+OS2wKv4oaA2dryKHxyvkvgK4FUSXwG8SuIrgFdJfAUgZ9ud3/ve9/DBD/wK1113LVmWbnz5FYUPgdVBjzzLMMogEFsIECQ+CcQ/qgI8BAfegXU4lVKYFh2Bg/OBux9+mr9b2sElYy1u3aV541bYk4A2S5ALA6UZkAAZJR6Nx2DJCWQkFKueBx98iD//xF9y56c/u3G4m3BGEn/vd3+Lf/dvf21j948MAai8QymFqhkLPhC8RyGxTwCEgRZU8KS+BCwQcLrJrNN87fHjfPmBZ3hhueLIyDZ8FpicSLlgusEVoyk3T4xz3UTGtK4/CqAcZA6nKiocHkVOG+XjXH3kf3+U3/rdD50+4A3QeaP9O+s73vve9/D7v/db67t+5Ij8nCKQUPcBSgSpCUSEgYBDolCK4HXKbKH5+4cO8dkHDnDPgWX2LzmWOodZrgb0kiZL6QQHqwbP9oQjfcPqQMgtjCVAUPG7lSOIi5MpKSJxNDdefyPPHzjAvv1PnTbm9dhE4h/+wYfYvXvX+q5/REQCgSiVSiEqkhdbXN0IOFH0MBzrC1/bd5hP3PMo33mpw4KaBJqw9AImbTM1fh55eydzNmPfiuPZfo9Dgx5zoaKfZKQWlBGUSVCAdpCqFLwQiN83MTnBX3/qbzYOdg2blvOxIwd/5DrwTPAEgvOIyFobIoSADGUzWIIyrAAv9uBbzy3ykTu/xKGupidtaEyRT0yz5cQ+QnMEtfUC1PRuikSBhjSDUpboyzzNvOQXs2lev3uGveOwx8Coq5eG9VTK49NAURacv/PSU4PdgE0kLswfXf/0Hw8hDIVwjcAQAs45QggopdBaoFoEPcJT3ZRPP36cj37hO5w045SSgPdgCygH8XFigq27zmfLzA5SleFLhxfPsuuzyACbQ9P12Tve4obxBteMZlw+lrJnAnIgAQwFhAGTWy4/bbjr8WNE4ulPnPfx33oZR2ID0l/m6YWSOx4+zJ2PnWB/0cKakfhe1yPpL2A7i4T2NDTb7JyeYmZ6gpBpBqmBpEEYKHRPyCTj8GhJZleZKFfZnlgu2TrOT1w0wyXjcKGCPZUD12dy99kl8cfHTgynWBxKoIggShBRtRlU8cBiyie/d5DPP3yA5xZ7WJPGu/AlVAUKGGuOkFcpo8GgjWKQBnqmovIFYkt08OhEIQ1FQ+dIaLBsc57rpXxzznHn8x3u2N/ja4cGPLcKqPZpQ92IHy8Sh0TWDyKCIFjvWO12ePHYLB9/bJlPPb7Ik8tClTXB98B3wPagqqhChuRTtCtHFjyYBJs0cKoFNkMqhQ0Vq0mfxeaAJAwYUYqxdIw8maFTTfD40cCXn1ng7587yT3zA56rF8XZsJnENYFYt77Cxn6/cf2d4Vn9vnUS9v0RdaEg6NrccQSWun2ePTLLPY89yx/9w+McCFP48V1YFFRdVLWChAK0wYeUxa5jvtHhpAxwfUejk9Dsj6D1OEWjRS9TFPQIg5MoeqiqT1Y4RqqcCXJaeoSun2BfV/GV+Q53zZUbB3oaNuvEI0fjPq89iIKghzYtaEAXWEogG3ZA/bICBI/CAhZvLd43EJUgOqo3his31DMo8dNl6CCqhUKhXW0M2x4L3vD1EwV//cRx7njwAFhB6ZricEpEAlENxPkNSFGQjo4ytmMHIzMzkCTgA1oJ1pVYLCYzGGeQWiYEIYgiiIAEjILMKFKjePp9569910ZslkQDaI0XjSVQOYdz8Uu8D/SdpesHBByCR/CEEPAu4JzHh0BAAIXSBm0SlIqfDz62+o4J3oGz0YVTLSQEtI/unHOWTtrk64c6fPrb+7n30afAOUQg+PidtXMY21AU6kmJxASCBIICVNSvWglaabQyaGVq4gQv4CTgcRAsingfpYNOee7VtInE5QA9gQqFJ0S3SAeCBq8BpVEqqWUw1A3McAk6cA58UCAJqCgc3ge8DyhAEVD1BMRX4/tVAHyBCxXzYvj0k4t88sHD3PvCIosrJXk1IJrAcMogWvd/WPuD9zZO0jp1EumOnpEghBBb/Ej9GCAg+FponPN4d26luInEvkAJ+HpZJsqjTUA0KCVo0SQkqCDg42agAK1A1xtB8IILCo/GAc6D9zVpEkCGj6f8O/EQgqLwipd6FV8/OMdffmcfX3xmloNdDckIydoNn8KQtyiZtccTQrQZh30EQoj+OB6Cl7WVEzleR2T9f/AB7zyuJvJc2ERiU0MKGFdgbAneAg4kBgSoHAws3kUPA1cPtr45LQqlopx6FNbHG1RK0Ip4rWEEJtQkipAJ9K1weJDwlQOL/OFdX+P+48t0g6lN3oy0PQOiTifujBtXnCCl4/JVUcWd8hmRqFrc+s/G2QyhJnzYvMcPbdazYBOJLaBRlSSDEooAJHhJGCCUolAqJ09GcBhKr6isJ1hbK7s4FqUFpeKglIAxgjEqjjPE91tbYQM4SfASN6cTBXz828/x4c8/zAE/wWrlQJWQerwynCwTfJCo69aJ5CYprFWGFjBKxYmVgEIwSpPqhNSkGJXU7mTcEqljRqDiUvdRoL8Ph5tJVMUgxvFME5JxVkPGg3OOrxzo8O3DAw50oa8V1iSELIMsB23AO0JVErw9XQ8NJ58QPWTv8AgkOT7JKEVYBR471uXP/9/DfPHxY7zkxlgaKFCKhIJEbDQC6s2C+nJDaRk+X1sOIeCdxfvYnLPYyuKsXZO+SJ7ERVRfQ+oBC7Xvvs5/Pxc2kRhwoAxeJbw0gLtfDNz+6HH+7IGD/NXDh/jsk/N84xDMDaAAvIDXiqAEHyyEevnj8fWmEYcSp9R7D8bgtaEPzPXhiRe7/MnXn+JrBxY5uOroFgG8QpmMgKZyFYQBNPy6CTk3ovqoyQgBZy3OObz3BBc3Oe9CrTbrmRYVQ2AyjGLG/4d3cDZsItGnhgGaQ6tw74slf/PIEW5/co7PHezy2YOr3LX/GHc++BxPvTTPXMfRC5EylEYUiAREPOAIwQ7nOy7j4ONepBIssNiDpw7O8ZXvPcntj8/zVC+l6wTKHloDpFjyWgL7NE2n3oE4M5HDfhHyPKOR5eRpSmIMWlStu2vihjpx7TJxpGskDqNJa0SeHZterSTjpW7FvS/M8blHD/CFp09wspdAeycrzW080dV8+Zkj3P3EMzzywlGOL1mqejaVUqAFCIR6J9ZrpkzUYkHis76HA0dX+MbDT/Gl7z3OUmMXiyuOXr/HeAYtcfhKwKdgcpR2hP6JWkHVemzNeq8N0OCREEi1cP7MBOdtGWdytEWWpaRpik4MonRNTly6oeZ+TevEC57qGQbVz4FNHstz80f4q/sOcMf+Lt9baWKzCSg7oApyJbgSqpUutBe4Zsc2btu9i3duH+WKcSD3kFU45SkQAopWiGR6Ah4NZFgPdz9ZccfDz/OFF44yN7DRM1KAFpSKZyh+Td+FuJs7Bz4Hk6KSBNGCq0roraCDZUzDqFFsb6V8+H3XEtImnzoOXzguNK1muSnk/ZTUr+JMyUBPon11irMzoR7CyX9z8cZX1rApsj1+6y9z74sDHp33rA4A7UnTCjNYwvb7BJWRTu1ES87SyWWOzM+yUPVoTIyxdUyTYFCuwlHWy1thByXaarQ0WK3gi08c466H9/Hdw3PM9sHZFJ2ZOOLKEqoqBmiDxLMOFCIGrVNSGXpIPhoEyqAUtNyAC0YMt1y2m1+69Tqu3dnEaMPjHeHJZUidYpCCLhXK90EspWqhgj8rf+vR/7v/tbFrDZtIPHHVP+f5bsJsldQxvQFt1UeVHWzlcKZB1poiW3H0rGPelxx1PWaLHoVTtJOcpjakAkaDRSPeEFyD+VW497kT3PnQE3zj0DEOd0qCS8klJdUQbFWbS6DFoNAEFw1fFRRGNKmytZ9Tu0JVSUMs1+yc5K1Xnsfbrj6P1503ykiq6Tvh4eXAk8sBY2GQRBJ1GOCVpVKtWt18f5yLxE068XDRZLZIKIOJposEXFmgREjSBCTQW15ktV+g8jFcawuH+gl37nuJ//vgU3z6hVkeX/F0bANVNUldCibjpQK++sJxbv/uY9x7YJbjnYC1GhcCQTls0SPYEo2Q6JTEZAgG7xRYiTa/lxi5EUGFCuV7jOmC63aM8q4bLuUXXncZN18wxowakBmFMSbqadYZ0Rs2pJdD4PfDJhJvvHwPWzJQRRdCIM1H6fmcgW6jm2NorWF5Dt+2+DSQhhRxI1SDFt850uVPHn2eT+w/yoNzMChBCpjrwFcPzfEXj+3ns88e4njH0NRTtNIxglb0ZcCg6GCDQ1KNpAmV6LhhiQJtMEmC0oZBSLHWYYoVdusOb79klN98x/W897ptXDIKedkDDWr9vrPOnhzagLHV20cI37edC5uW84f++39gcHKexflZOoUj5JM4cpwzlGIwWhFMgBFP6C7jOj0MKY3RLVSmxcJywdHFHic6woqMMKLgjm/t4/Zv3s93XzxBlU3gpYX1uiYoEFwRjeksxWuD84FQlnEnTg0mT0iMIgSHCwmsLnD5VML7X3cRv/bTV3HDjGKSgkw8kjZAGYLASgH3L1geX7QYC0UmJM5gqBDjcaqN8nbNhT9X633+j9bTdBo2SeJNbbjtinHevXeGKyc0snwSBjaaGpXCW0crVejuKoiFpmCzQFk5GoOEhh1nsdfiq8dW+fCjB/nw/Qf5uycO8eyhFaqTQJVBnuESKEKBK0sa3sR4nx46uT76i4kCFcD2KVbnKRaO0KqWefsNr+Vf/9wbefcNr+HirCSng5ISlOBUDKKEWgJ9beBvlESGRte5hexlYROJE2GV67c3efsV2/nZ10xzxYhlhB5CBd7hrcNXjtwmKDHxxpXHhgrtPNorBlY42fc8t9jlr/e/yP4ywTW3kiTj0LMx+qND9G5sRVqHpnAhBjRQkVRRaFuSVn1GlWP3WM57987wi1fv4NZLp7l0S4vMGLASA6FKY4FqzY0+PZhwCvG597XhXhvh52znwCYS8TCZCldva/P2K7byC3u3cO1kYJt0ydwAcYGiEoJqI74BlYbKEULJwBT0khKrXL1zajqDhJXWVti2GzM1HQns9JCiioNT0MFGAksHVTSmE6XRVYXu9ZhQwhXbt/H263+CX/tn5/FTuzP2ZJAKkLRxMoFTI1gxAOghOWdAoHb5fB0nDEPGv087BzaTaEaoysCIWK7bnvIv3rCDn7lknAvzPiOui8ETTE7PJzifk1YpZuCh6GJNHz8aoK3IQ2Cs62lMX4htjbPSajKYGkGPt1ErHVpLPcacoBOD8/1IYuXAWnRVoYoSen2avuKiqTF++tor+NW3Xszr9qTsHnOMaotz0FdQ5EJZC6TC0tIVqlZmceHWHgqRkPXL/JXAZhJdIElzEhFMVbInCfzLf7aLX7lhhqvHC7LefAy9ewtJoEoDVioY9JG+JRkEjBUKrVnONYNyCaoO+IKgBTc5gr9gO53pEToSkNUBuhMILgOtwXVw3SMUnUNMTGve8vrL+OBbLuVfvRZu0gtg2nUzJAZygQbxsD0DDIYYEY1+PNS5J17ABsQJymtMSEnq9/2w2Ezi8BBEa4zWJHhGlOd1l+zina/fy62v2cFUMQ8U6FCRGUWz2SYfnUSbBs6CLR3BxUhOcK6OMhNtDm0gyWMILc1QaU6SJKSDE5iqh9EZI6NTXL57O7ddvYtfvWk3P3nZNNMTI2BG6oOx4YH+5l10KHnnQh3sWguH/bDYTGIdLEAElIYAqhxw3mjCmy+d4l1X7uTmGcWMLtC9JezqMq60iM6xIcHX6YNGCamq9YmXmH2FBmVq3zdH8ibSbCHNJrlUpHbAdKq4bucMv3T95fzyNbu5ZWfOrmYAo+glSTyJ+zHDZhJVbEHiYU3wgTQ4xql4TQtuPb/Nu6/ayRVbRxiXitDvUPQGVE7BsAXBCJjg66Uv4OvjVzGgE0hzSJuEvElotqnSEWbGR7hpzxTv2buN91+1gzfsmmA0FWQ4Mz8SbNxBztbOjrOQKFGNePDOo7VGfEnqCi5ows9ds5M3XnkJl2ydYiJNSJBo7qgUVDRNgrXYQY86IlaP5RSRXif4JMVlOVXaoJ9Mcemll3HbG6/kAzfs5pKJGMmBBpgWiYIG/bXTvlcKGy2Zs7VzYTOJ9WpxAVyIJ8hR+dSsOg8eqtUOVXcVV/TAlRh89LW0im8d5tPg64O99aMCguBFcKJw2kBrlJA1qZShCDHKPBxMnIN6ifwY4gyjEkprcd6hjSCmds9URi80ePx4l9u//DBfuedb7HvqaRbn5qh6HaTsYXwB1EtPCaQp8ZSzDpp6H2fHD1vNkAijLeGZoye4/b7n+dh9R/j2cU+XJO7q1YDCCz2yOjHglcSG072ztHPhjCTGYGice1FggzA/gEdP9Pn7fcf51H3P89RLs3T6JQgYLBSraNtB+YIQKqrgcaKI4VgXMyaCQ7xD1nbsU4MLwXFsEPjOXMVdz3e5fd8CX31xmRf7oU5Sf6XJq3Fufl4WzkBiPDeOG6vDE+ij2H9sgS899ByfffAg989DhwaqNYrKMrwb0F+dxfYXENePuizUM1Dn5cQ+hwoOFXydBTGUK2HVZZTZKB3TZv+q5W+fPs7HHzvGVw8POLAquApa9kdG5Q+FTSR6wGiNSKCyloELzHZL7nnkae765kPc9/QxqvZ2Qj6KTxrRl16ax584jFs6gS+7aHyMyJq0vuu4nCN5rIWhWLP1NKhxMA0wAecHHFns8LdPLfIXDxznS/tOcHh2CcrVtUP/0/fNsGaanfqPDTq1Frl1kvd9VunLxiYSB66DY0BQgRUR7ju6ym9/4hv86bde5Pn+OMnkhTEpR9Jo92Up2ViLvJ1Cd5EwewS/MEfWL2mQQnMKfIu8rxkthFFlkIbGJQ6PwzsBrxG/CKvz0OkjtEjHdmBDzndfOMGfPnSED+0r+eOlEahWoehQWBgQU16C7cccRQoGwEqduqIkbkbOOpwN0doIoCQmMznrom/xcto5sInEZjCI0yyVhvueW+Ijn/k29x0tWDBjFCahqpbAziOpi8lO5YCiW1B4QzayBUyDsNqjmD1Gf+EEzM0i1QCXKLpJwqL1VD0LVSx9wFjQXXIjKBP7gg9YG/CiKIPi6HKP+599ib/99gv82YPLPN1vg4aGL8jKZUSBUy1KclSsHUBJ9CKV0milSRKDErUuNEbtu/zw2EQiNJhfDNz94Ev8zT3Pcu9hy/NLim7IIDOQlog7SdMuo4rVOLVpm5BNULi0NrYd2C559wRXtgy7GoKkjlJ7vBhwGVmhyIuK1HUR3SEEh1YaUfF82FsLolFpixLDkZMr3Lf/EJ96xnHHY/M8eqRL6WIioy9Lgo+ERM85UJ/ZAyAq6nkRwXtfJ9P7tVSXHxabSFzuw71PzXPH1/fzhUde4qSeAd+AMlrNWaYwyhL6q1CVoFOkMQ75RCSwLBgxFa+dVNxyXov3Xb2Lm/e02db0EApAUCpHeQPWE6oSFUqqsox6U9UOsY9JppI28EmTXjCc7FruPzbgM48d5zNPzPPto565Iqe0grEFiXfo2kMS4vw6FzMfIKrINUkk1sq8ElvVJhLvfgn+6lv7+eqzsyzZDGeB8bEYRO33sUXAZBNUXqPTETAtgjPgFWm7RSuxXNgo+NnXTPBfbns9H7hlC+/aO80bZjJ2GAtVgfc+qgaT4yUjFBpX2Zh+J0SjPQA24LwQdI5uTkBrguWlOQ524a6n+/zPb87y+UOKJT0Wo0pVD7yjquMd3oG1FltVWGtPs/ek3uBeCWw6Y3l65iaeXBywpBoEraFYYbKtSH1B2S/wA43PtpA02pR2mPkJFKtkvVnefPE0H3zLVbz/jZexd0oxklVsG0mZzhokJczOL7NUdAmNjNBqoVVGGIBKkkgeql6GdY6hc7HOTzQ6TRhJPcuDisVCcbgDz7y0gJiMqalRRrMM7Ww8TFPQqeC7sxWPzBVkQVFlGlMZUmURExiEDB2q9bd/VvS/+JGNXWvYROLs7htxWZO+jZvGyHgDlk+gix6JbuCzSZxvYntdyFI0FjNYYkZ3eMfVF/D+N1/JLZdtY3fLI66D6JKW0mzN20w223jvOF72WK4KqBzeJhga6Fxw3uGr+vjAaEjMqaUd6jTmpD4PdxU2BCrT5PmFksOLFpU22T6pyemDSug5uH/B8/iCJfWaMlcYa0iVIyhH36YYcS9rQf9AJL7pPR+g2+3SHThckqEEwmAVnEUlOWQjVCoDP0BVXab1gKu25rzjmvP5hZsu5caLtrCtqRBXRjvDZCAJWZox1jSMjDZBeTr9Hku9Cm81YpqgY+obPuovrRWJFqT2eYa2oPMCWkhMzPrqe8Vsx3N0sctKtwMiTI41kaqi7zQPLgaeWPKkTlGk1JIYSexZQ6peniP5A5H4P37nt1mcPclCz9Mlpyw8pJqAw0rAasEbRer6TOqSa3aO8M7rL+R9b7ica3aNMGo84h2OhEoaGNUikOBxmFwxM2mYbLRQpWfQdyyWPqY3h7pEYWiE46HOu5YQA7zgwdqYN56keDH4ooRg6Q06zC8ucmxlQNeMsDMsY4PmkRV4cjmQWOgbT1IlZMqBdvSHJL4MFn8gEv/4D/4rY80xji4W7D+6Qkja+CzFao91Bd72wPVo9xf5yasu4rZbruZt1+ziwjGF9v0oSSrDJYbKaIyHroOeOLwqaSDsHk2ZyCdAEuYGA06sLMYQmU7QRqPE46sBvigI1hK8RwgkAkZHafSVIQQDGoxdoC0D0AkHVoW7nzrOjWMFVhIe72ieXQVtA33lSVyURJSncAlGxc3sVKT7zDgXiZuywhbmDjDoJzzwzAKfue8gn3z4IMd7DqbGIVe0+4tMdmf5/Xft5ZrLLmTHthnG2g20gLc2mg1K4XygqhxiDFqBIuqxylqSrEUvwHMnSu7b9zxfefhZ7updheRCyy/hikX6pYXmFpAGVAXadhnTlhXVqAMb9W0LSPBI8GtZ/+DZbgY0Wk3M6DTSHMN5RQUYZfCuwtsKUZqqspgkwcSEyDoRNKC0QtWpd945ln7ztetpOg2bJPE//udfJzGGkfYIE5PT5K0Wh7vLrMwdY4wBbzp/O79yy43c+tot7N46SbuZo5WKJ2ghIKpOkCQWdVd1AY4WEAJGBNFxw0hSzWizzfjoKId6UKwuUlYlTueQjxKqCrxFjCZNUgof449D8+SUlVcX8dQ+tRAoywFFUOi0QZLl+BAJUWrotcRxIRKDzipaBbGiIKCGMdT6ZLD48sfW03QaNpH4G//p34N4Uq0ZayfMTE8yPdZgz3jOzefN8La9F/HWK3ezdTKn0cjQWhPqACz1INdyXZQQiNn7ivqOYwSCEASlodlImBgbIxOLK/os9R1LNiHoZizgCSUSHJUYnDSgzr5lmKg5jCms2YAx8Cu2QGlD2miSpI06hBkTUaPb52M6stIxEzacMsTjfQwzJYRAoPiHj9bX34xNy/ml+UOYUGIsCCmVSZgtYLkTjyW3pDCaxDPKsC6g6b0/VS0vsiYVXmJOR4zgDM8KwHvBYmLVW4ATCwX3vNDhc/uXuOdQj1WryJsJ2C6DsozHoI0JKJaIUxOJhEhggNqYjgmhqlghazQZm9hCe3wSh8ahMCaJSfGuIjG6vlIcbyQ3IGvSeUoSF3/j7PXOmzwWRUIqjZqMgtQP2JUGLp+AiyZgNA0xc7a+uLXR09Baxy+uCVw/qwFwPuBr8wV8TCSyA1RV0SRw4Tj83N4p3nPtebzpvDHaoU/V71N5AzqvTx4Ha5K2Jn1niWcNSyjiWyJRQzWwPrHdex/tUx8DaCIS9aFad6T6fbbvTSRmjjqIYOIFvCX0O3RXV1jprTKQPmEshv0BtNan5QEOsTab9ZdoJXWRUN2jFUmiSFQAG23KLUng7Zcafv2WPfz8a6dR3UVcr0SnbUbaOaZ/AhnWywyJrCdpTQqHZzhDAta0ZowQRX0diax1S/yMxIiPMQatNCGA9w7vXSyCOgc2kSjDCk9HzBxQBklz8labpNnEZykFMUiwfvlS38jw5wakXsa2cnGMqg59BfDW1793E3dy0ZpKMlSo2KIsr5v2vP+Gndx2w6XsmWxh+ssUi7NkdnB6cG+9RJ4Vp4gk1EU+dZ+suwddPyoVV5JzFluXbZzr6pyJRGw9OQa8iQmWQSUYrUi1RggUvk+oRX9I4HD5DnVkRECCoy4kI4jCBaH0MXfJ+1oqlcHVsUSqLpOscvOOhF+9aQfvumyci5sWU/TqRJENh6ZrErnhVkMtBKcdfYb4WBdrrglYvYEMhdJ5h7W1qaMUaXLudJNNJHoqvKmotGcgMKirlyXEMujEenRZRf+2xinShjqnlkzvMYpYw+JDXcOiCSrBi8IybPF+rTKxwsBbxlWXt+yA2/aO8zOXbWXP9DR9Gaml6NRSjqifrdORYd3TeNBYb4JrBJ7S2+ub8w5no44UJaRpSrPZPO3bNmITiaoZCMpSUlFgqXBr9cp4MKJpZ43TJE4kmg7DzUXVdqOrd2xCrF/2dagrSRQm0YiONS3OQ3AOJyB5G/I2VF107yhv3JVx283n8ZbrryRLmxD0Wl0+dWHHmiSxlt0ZJ25Yiz1swzq9wNqxrXMOZy3WOpz1OBtipm4IGCW0GylbxjeQtAGbSIQETU6LFmO0aGNifU8s9owxd2mgtVmTuDNBqZh4jjIonWBMTFWOtdGnWiKQKmhovZajFVRCyCagtRWMcEWr5DcuW+ETb8tI/ASpmaKhBNwCqBVoqJiWElIohEavJKOHlj5BlTgdqJShQhOckHrFhKRsSRp16FII3uB9myBjlG6cXqciLxZ47dgSP793w81twBlIrJVubQSc5k/KqddfDtZIXivx2vD6GdpQx3lR0awBmqlmx0STq/dM8Dtv28O1IyskbkDQE2AbMCjAriL0yNKAaY7iywnot0mKjLZTjBvPWFai0z5dWeVotcCh/gJSpWS6gc4TqqRkNazgZJ6d7YKbt+a8c+sI725tGPgGbDK2/8l+F6fGUE2EEGJwtYb3nqKyLBaazz16lDsfn+Nbx0sqcggF2nhyYu5QvwSKFJVnzEyPMTXZQmlP6S1WGQZOqEhIshaVDRgKlO2RhgGTueHSbRPsnci4dlxx5Uhge1YxeeEFp41zPX7sSKQm0tf69HSV4cEtM9vPufOROT714DEeWRBWQ4powVDhqg6+swz5FOQ54+OjTIy1Y6WvF5Ru4nxKUA2SBhwdLDKdWHbpiouywOWTLW68eJxLpmHGQFoOoD/P5CU3rhvH6fixJpFaJZza8T24VZCEpb7m7qdP8tF/2Mf+sItjpa7PWJZRshJ3cJWStadojs+gszHSbIRMKcpuoOj0UL5Cpy9x00XbePOF07xuBi7IYUxHfS3BgnRBVUxuvWrjMNewicR/sh9c86d+bG1933oLQJSiwJG6ChWgUyY8fCLw3z79AA+sKOYHAkaRj7fYeuwQIR9Bps/DTe1kSWBgA03VZ5RVJnWfi8YzPnjJdnaOwWgTWg3I04BG4qYXHElZUPT6bL/kynWjPR2boji3vvlN/yQ//bfRZFqP9dIoCEElVGJAKyZbiotmRgkrJxiUBSd9TjVbslw6BskorjUFeQMBJsIKV470+antjl+82PDeS1tcM5mxqwHTiWNE+jSURURRIRQ+YEXx0KOP8clPnv2n/zaRWFYV73zH29d3/aPhNKk7bRmfIjbmmQmuNgkzgT0TKZMtQ7CepcU+c10LzRRnhDyHra3ApaOWN+0wvG1Pzk/vSHjjlGLXiIIkI9UWKGJdjVdoSVAoKhFKHfiDD/0hT+/7AX6Ect++/bRaLW688fr13T9yyDB8VhM5DGgMnw/f432MT2oCpi6SNFqYmRmnkbTIq4JtTY0aH2X7iGLvtPD67cKtuxRvvajFTbtSzh9NMdoAmo6J6TBG6ky2YEDSWPkvwp997P/wJx/747UxnAmbdOIQ/5g/zDuEr1M8ZBgBqtM+hvpSaU3XQltsnbZUgkpZ8eMMRGEEQgeOvDDHNxdGaWdwyYzh4hnNVF6gjcOLoUNKr/7OKUDjCFSU+PhzDKXhyQcf4pN/8XHuvOvTG0a5GWcl8VW8fJzBY3kVPyheJfEVwKskvgJ4lcRXAP8f5PJJfB+RBFIAAAAASUVORK5CYII=;" vertex="1" parent="1">
          <mxGeometry x="10" y="260" width="50" height="50" as="geometry" />
        </mxCell>
        <mxCell id="zyvf-ZS0OscmSLXaZsEM-3" value="AWS Account" style="points=[[0,0],[0.25,0],[0.5,0],[0.75,0],[1,0],[1,0.25],[1,0.5],[1,0.75],[1,1],[0.75,1],[0.5,1],[0.25,1],[0,1],[0,0.75],[0,0.5],[0,0.25]];outlineConnect=0;gradientColor=none;html=1;whiteSpace=wrap;fontSize=12;fontStyle=0;container=1;pointerEvents=0;collapsible=0;recursiveResize=0;shape=mxgraph.aws4.group;grIcon=mxgraph.aws4.group_account;strokeColor=#CD2264;fillColor=none;verticalAlign=top;align=left;spacingLeft=30;fontColor=#CD2264;dashed=0;strokeWidth=2;" vertex="1" parent="1">
          <mxGeometry x="570" y="220" width="280" height="260" as="geometry" />
        </mxCell>
        <mxCell id="zyvf-ZS0OscmSLXaZsEM-4" value="" style="verticalLabelPosition=bottom;html=1;verticalAlign=top;align=center;strokeColor=none;fillColor=#00BEF2;shape=mxgraph.azure.github_code;pointerEvents=1;" vertex="1" parent="1">
          <mxGeometry x="10" y="30" width="50" height="50" as="geometry" />
        </mxCell>
        <mxCell id="zyvf-ZS0OscmSLXaZsEM-5" style="edgeStyle=orthogonalEdgeStyle;rounded=0;orthogonalLoop=1;jettySize=auto;html=1;entryX=0.5;entryY=1;entryDx=0;entryDy=0;entryPerimeter=0;" edge="1" parent="1" source="zyvf-ZS0OscmSLXaZsEM-2" target="zyvf-ZS0OscmSLXaZsEM-4">
          <mxGeometry relative="1" as="geometry" />
        </mxCell>
        <mxCell id="zyvf-ZS0OscmSLXaZsEM-9" style="edgeStyle=orthogonalEdgeStyle;rounded=0;orthogonalLoop=1;jettySize=auto;html=1;" edge="1" parent="1" source="zyvf-ZS0OscmSLXaZsEM-7" target="zyvf-ZS0OscmSLXaZsEM-3">
          <mxGeometry relative="1" as="geometry">
            <Array as="points">
              <mxPoint x="490" y="362" />
              <mxPoint x="490" y="362" />
            </Array>
          </mxGeometry>
        </mxCell>
        <mxCell id="zyvf-ZS0OscmSLXaZsEM-7" value="" style="sketch=0;outlineConnect=0;fontColor=#232F3E;gradientColor=none;fillColor=#ED7100;strokeColor=none;dashed=0;verticalLabelPosition=bottom;verticalAlign=top;align=center;html=1;fontSize=12;fontStyle=0;aspect=fixed;pointerEvents=1;shape=mxgraph.aws4.ecs_copilot_cli;" vertex="1" parent="1">
          <mxGeometry x="220" y="333" width="62.18" height="57" as="geometry" />
        </mxCell>
        <mxCell id="zyvf-ZS0OscmSLXaZsEM-10" value="&lt;b&gt;aws configure&lt;/b&gt;" style="text;html=1;align=center;verticalAlign=middle;resizable=0;points=[];autosize=1;strokeColor=none;fillColor=none;" vertex="1" parent="1">
          <mxGeometry x="390" y="370" width="100" height="30" as="geometry" />
        </mxCell>
      </root>
    </mxGraphModel>
  </diagram>
</mxfile>
